<mxfile host="app.diagrams.net" agent="Mozilla/5.0 (Windows NT 10.0; Win64; x64) AppleWebKit/537.36 (KHTML, like Gecko) Chrome/139.0.0.0 Safari/537.36 Edg/139.0.0.0" version="28.1.0">
  <diagram name="第 1 页" id="T9pxBE5IBgKllSfxurPP">
    <mxGraphModel dx="2097" dy="1686" grid="1" gridSize="10" guides="1" tooltips="1" connect="1" arrows="1" fold="1" page="1" pageScale="1" pageWidth="827" pageHeight="1169" math="0" shadow="0">
      <root>
        <mxCell id="0" />
        <mxCell id="1" parent="0" />
        <mxCell id="SlmCnSXpyHfHbI5BVayt-1" value="Layer 1" style="rounded=1;whiteSpace=wrap;html=1;fontFamily=Times New Roman;fontSize=80;" vertex="1" parent="1">
          <mxGeometry x="140" y="500" width="810" height="90" as="geometry" />
        </mxCell>
      </root>
    </mxGraphModel>
  </diagram>
</mxfile>
